<svg xmlns="http://www.w3.org/2000/svg" viewBox="0 0 608 126" width="608" height="126">
<rect x="16" y="34" width="4" height="70" fill="#f3f4ed"/>
<rect x="22" y="34" width="2" height="70" fill="#f3f4ed"/>
<rect x="28" y="34" width="2" height="70" fill="#f3f4ed"/>
<rect x="38" y="34" width="2" height="70" fill="#f3f4ed"/>
<rect x="44" y="34" width="4" height="70" fill="#f3f4ed"/>
<rect x="56" y="34" width="2" height="70" fill="#f3f4ed"/>
<rect x="60" y="34" width="2" height="70" fill="#f3f4ed"/>
<rect x="66" y="34" width="8" height="70" fill="#f3f4ed"/>
<rect x="76" y="34" width="2" height="70" fill="#f3f4ed"/>
<rect x="82" y="34" width="2" height="70" fill="#f3f4ed"/>
<rect x="88" y="34" width="8" height="70" fill="#f3f4ed"/>
<rect x="98" y="34" width="2" height="70" fill="#f3f4ed"/>
<rect x="104" y="34" width="2" height="70" fill="#f3f4ed"/>
<rect x="108" y="34" width="2" height="70" fill="#f3f4ed"/>
<rect x="114" y="34" width="8" height="70" fill="#f3f4ed"/>
<rect x="126" y="34" width="2" height="70" fill="#f3f4ed"/>
<rect x="130" y="34" width="8" height="70" fill="#f3f4ed"/>
<rect x="142" y="34" width="2" height="70" fill="#f3f4ed"/>
<rect x="148" y="34" width="6" height="70" fill="#f3f4ed"/>
<rect x="158" y="34" width="2" height="70" fill="#f3f4ed"/>
<rect x="164" y="34" width="4" height="70" fill="#f3f4ed"/>
<rect x="170" y="34" width="2" height="70" fill="#f3f4ed"/>
<rect x="174" y="34" width="6" height="70" fill="#f3f4ed"/>
<rect x="184" y="34" width="4" height="70" fill="#f3f4ed"/>
<rect x="192" y="34" width="2" height="70" fill="#f3f4ed"/>
<rect x="196" y="34" width="6" height="70" fill="#f3f4ed"/>
<rect x="206" y="34" width="4" height="70" fill="#f3f4ed"/>
<rect x="214" y="34" width="2" height="70" fill="#f3f4ed"/>
<rect x="220" y="34" width="2" height="70" fill="#f3f4ed"/>
<rect x="230" y="34" width="4" height="70" fill="#f3f4ed"/>
<rect x="236" y="34" width="2" height="70" fill="#f3f4ed"/>
<rect x="242" y="34" width="8" height="70" fill="#f3f4ed"/>
<rect x="254" y="34" width="2" height="70" fill="#f3f4ed"/>
<rect x="258" y="34" width="2" height="70" fill="#f3f4ed"/>
<rect x="268" y="34" width="4" height="70" fill="#f3f4ed"/>
<rect x="274" y="34" width="2" height="70" fill="#f3f4ed"/>
<rect x="280" y="34" width="4" height="70" fill="#f3f4ed"/>
<rect x="288" y="34" width="2" height="70" fill="#f3f4ed"/>
<rect x="292" y="34" width="2" height="70" fill="#f3f4ed"/>
<rect x="302" y="34" width="2" height="70" fill="#f3f4ed"/>
<rect x="312" y="34" width="2" height="70" fill="#f3f4ed"/>
<rect x="318" y="34" width="4" height="70" fill="#f3f4ed"/>
<rect x="324" y="34" width="2" height="70" fill="#f3f4ed"/>
<rect x="332" y="34" width="8" height="70" fill="#f3f4ed"/>
<rect x="342" y="34" width="2" height="70" fill="#f3f4ed"/>
<rect x="346" y="34" width="4" height="70" fill="#f3f4ed"/>
<rect x="358" y="34" width="2" height="70" fill="#f3f4ed"/>
<rect x="362" y="34" width="2" height="70" fill="#f3f4ed"/>
<rect x="368" y="34" width="2" height="70" fill="#f3f4ed"/>
<rect x="372" y="34" width="8" height="70" fill="#f3f4ed"/>
<rect x="384" y="34" width="2" height="70" fill="#f3f4ed"/>
<rect x="390" y="34" width="2" height="70" fill="#f3f4ed"/>
<rect x="396" y="34" width="2" height="70" fill="#f3f4ed"/>
<rect x="400" y="34" width="4" height="70" fill="#f3f4ed"/>
<rect x="412" y="34" width="2" height="70" fill="#f3f4ed"/>
<rect x="416" y="34" width="4" height="70" fill="#f3f4ed"/>
<rect x="424" y="34" width="2" height="70" fill="#f3f4ed"/>
<rect x="434" y="34" width="2" height="70" fill="#f3f4ed"/>
<rect x="438" y="34" width="2" height="70" fill="#f3f4ed"/>
<rect x="444" y="34" width="8" height="70" fill="#f3f4ed"/>
<rect x="456" y="34" width="2" height="70" fill="#f3f4ed"/>
<rect x="462" y="34" width="4" height="70" fill="#f3f4ed"/>
<rect x="470" y="34" width="6" height="70" fill="#f3f4ed"/>
<rect x="478" y="34" width="2" height="70" fill="#f3f4ed"/>
<rect x="488" y="34" width="2" height="70" fill="#f3f4ed"/>
<rect x="492" y="34" width="4" height="70" fill="#f3f4ed"/>
<rect x="500" y="34" width="2" height="70" fill="#f3f4ed"/>
<rect x="508" y="34" width="8" height="70" fill="#f3f4ed"/>
<rect x="518" y="34" width="2" height="70" fill="#f3f4ed"/>
<rect x="522" y="34" width="8" height="70" fill="#f3f4ed"/>
<rect x="532" y="34" width="6" height="70" fill="#f3f4ed"/>
<rect x="540" y="34" width="2" height="70" fill="#f3f4ed"/>
<rect x="544" y="34" width="8" height="70" fill="#f3f4ed"/>
<rect x="556" y="34" width="2" height="70" fill="#f3f4ed"/>
<rect x="562" y="34" width="2" height="70" fill="#f3f4ed"/>
<rect x="566" y="34" width="4" height="70" fill="#f3f4ed"/>
<rect x="576" y="34" width="6" height="70" fill="#f3f4ed"/>
<rect x="584" y="34" width="2" height="70" fill="#f3f4ed"/>
<rect x="588" y="34" width="4" height="70" fill="#f3f4ed"/>
<g font-family="ui-monospace,Menlo,Consolas,monospace" font-size="8" fill="#f3f4ed" letter-spacing="0.8">
<text x="16" y="10">SYS.BC.01</text>
<text x="16" y="22">COVENANT // BASE</text>
<text x="592" y="10" text-anchor="end">SCAN -&gt; LIVE</text>
<text x="592" y="22" text-anchor="end">0101001 / 010001</text>
</g>
<path d="M0,5 L0,0 L5,0" stroke="#f3f4ed" stroke-width="1" fill="none"/>
<path d="M603,0 L608,0 L608,5" stroke="#f3f4ed" stroke-width="1" fill="none"/>
<path d="M0,121 L0,126 L5,126" stroke="#f3f4ed" stroke-width="1" fill="none"/>
<path d="M603,126 L608,126 L608,121" stroke="#f3f4ed" stroke-width="1" fill="none"/>
<text x="304.0" y="123" font-family="ui-monospace,Menlo,Consolas,monospace" font-size="10" fill="#f3f4ed" letter-spacing="2.5" text-anchor="middle">HTTPS://BUILDONCOVENANT.COM</text>
</svg>
